<mxfile host="Electron" modified="2024-05-31T19:21:10.770Z" agent="Mozilla/5.0 (Windows NT 10.0; Win64; x64) AppleWebKit/537.36 (KHTML, like Gecko) draw.io/24.0.4 Chrome/120.0.6099.109 Electron/28.1.0 Safari/537.36" etag="UuZJZQrfjFNUF2BziPZr" version="24.0.4" type="device">
  <diagram name="Page-1" id="eYNd7CYHJ70QXBu0idzA">
    <mxGraphModel dx="1313" dy="776" grid="1" gridSize="10" guides="1" tooltips="1" connect="1" arrows="1" fold="1" page="1" pageScale="1" pageWidth="850" pageHeight="1100" math="0" shadow="0">
      <root>
        <mxCell id="0" />
        <mxCell id="1" parent="0" />
        <mxCell id="D5gXTFY0TgWt_CdSVPmb-43" value="VPC" style="rounded=0;whiteSpace=wrap;html=1;labelPosition=center;verticalLabelPosition=top;align=center;verticalAlign=bottom;" vertex="1" parent="1">
          <mxGeometry x="140" y="120" width="490" height="260" as="geometry" />
        </mxCell>
        <mxCell id="D5gXTFY0TgWt_CdSVPmb-44" value="VectorDB" style="strokeWidth=2;html=1;shape=mxgraph.flowchart.database;whiteSpace=wrap;" vertex="1" parent="1">
          <mxGeometry x="160" y="130" width="110" height="100" as="geometry" />
        </mxCell>
        <mxCell id="D5gXTFY0TgWt_CdSVPmb-45" value="LLM" style="rounded=0;whiteSpace=wrap;html=1;" vertex="1" parent="1">
          <mxGeometry x="155" y="270" width="120" height="60" as="geometry" />
        </mxCell>
        <mxCell id="D5gXTFY0TgWt_CdSVPmb-47" value="" style="endArrow=classic;startArrow=classic;html=1;rounded=0;entryX=0.5;entryY=1;entryDx=0;entryDy=0;entryPerimeter=0;" edge="1" parent="1" source="D5gXTFY0TgWt_CdSVPmb-45" target="D5gXTFY0TgWt_CdSVPmb-44">
          <mxGeometry width="50" height="50" relative="1" as="geometry">
            <mxPoint x="320" y="360" as="sourcePoint" />
            <mxPoint x="370" y="310" as="targetPoint" />
          </mxGeometry>
        </mxCell>
        <mxCell id="D5gXTFY0TgWt_CdSVPmb-49" value="" style="endArrow=classic;startArrow=classic;html=1;rounded=0;entryX=0;entryY=0.5;entryDx=0;entryDy=0;exitX=1;exitY=0.5;exitDx=0;exitDy=0;" edge="1" parent="1" source="D5gXTFY0TgWt_CdSVPmb-45">
          <mxGeometry width="50" height="50" relative="1" as="geometry">
            <mxPoint x="320" y="360" as="sourcePoint" />
            <mxPoint x="500" y="300" as="targetPoint" />
          </mxGeometry>
        </mxCell>
        <mxCell id="D5gXTFY0TgWt_CdSVPmb-50" value="Websocket bridge" style="ellipse;whiteSpace=wrap;html=1;aspect=fixed;" vertex="1" parent="1">
          <mxGeometry x="500" y="260" width="80" height="80" as="geometry" />
        </mxCell>
        <mxCell id="D5gXTFY0TgWt_CdSVPmb-51" value="External Entities" style="ellipse;whiteSpace=wrap;html=1;" vertex="1" parent="1">
          <mxGeometry x="800" y="120" width="120" height="80" as="geometry" />
        </mxCell>
        <mxCell id="D5gXTFY0TgWt_CdSVPmb-52" value="" style="endArrow=classic;startArrow=classic;html=1;rounded=0;entryX=0;entryY=0.5;entryDx=0;entryDy=0;exitX=1;exitY=0;exitDx=0;exitDy=0;" edge="1" parent="1" source="D5gXTFY0TgWt_CdSVPmb-50" target="D5gXTFY0TgWt_CdSVPmb-51">
          <mxGeometry width="50" height="50" relative="1" as="geometry">
            <mxPoint x="590" y="360" as="sourcePoint" />
            <mxPoint x="640" y="310" as="targetPoint" />
          </mxGeometry>
        </mxCell>
        <mxCell id="D5gXTFY0TgWt_CdSVPmb-53" value="External Entities" style="ellipse;whiteSpace=wrap;html=1;" vertex="1" parent="1">
          <mxGeometry x="800" y="250" width="120" height="80" as="geometry" />
        </mxCell>
        <mxCell id="D5gXTFY0TgWt_CdSVPmb-54" value="" style="endArrow=classic;startArrow=classic;html=1;rounded=0;entryX=0;entryY=0.5;entryDx=0;entryDy=0;exitX=1;exitY=0.5;exitDx=0;exitDy=0;" edge="1" parent="1" source="D5gXTFY0TgWt_CdSVPmb-50" target="D5gXTFY0TgWt_CdSVPmb-53">
          <mxGeometry width="50" height="50" relative="1" as="geometry">
            <mxPoint x="578" y="282" as="sourcePoint" />
            <mxPoint x="810" y="170" as="targetPoint" />
          </mxGeometry>
        </mxCell>
        <mxCell id="D5gXTFY0TgWt_CdSVPmb-55" value="External Entities" style="ellipse;whiteSpace=wrap;html=1;" vertex="1" parent="1">
          <mxGeometry x="800" y="380" width="120" height="80" as="geometry" />
        </mxCell>
        <mxCell id="D5gXTFY0TgWt_CdSVPmb-56" value="" style="endArrow=classic;startArrow=classic;html=1;rounded=0;entryX=0;entryY=0.5;entryDx=0;entryDy=0;exitX=1;exitY=1;exitDx=0;exitDy=0;" edge="1" parent="1" source="D5gXTFY0TgWt_CdSVPmb-50" target="D5gXTFY0TgWt_CdSVPmb-55">
          <mxGeometry width="50" height="50" relative="1" as="geometry">
            <mxPoint x="590" y="310" as="sourcePoint" />
            <mxPoint x="810" y="300" as="targetPoint" />
          </mxGeometry>
        </mxCell>
      </root>
    </mxGraphModel>
  </diagram>
</mxfile>
